<svg width="16" height="16" viewBox="0 0 16 16" fill="none" xmlns="http://www.w3.org/2000/svg">
<path d="M4.13342 5.40355L1.66675 8.00004L4.13342 10.5965C6.23609 12.8099 9.76408 12.8099 11.8667 10.5965L14.3334 8.00004L11.8667 5.40355C9.76408 3.19021 6.23609 3.19021 4.13342 5.40355Z" stroke="#080D23" stroke-linecap="round" stroke-linejoin="round"/>
<path fill-rule="evenodd" clip-rule="evenodd" d="M8 11C9.65685 11 11 9.65685 11 8C11 6.34315 9.65685 5 8 5C6.34315 5 5 6.34315 5 8C5 9.65685 6.34315 11 8 11ZM7.1667 8.00001C7.1667 7.53977 7.5398 7.16667 8.00003 7.16667C8.27617 7.16667 8.50003 6.94282 8.50003 6.66667C8.50003 6.39053 8.27617 6.16667 8.00003 6.16667C6.98751 6.16667 6.1667 6.98749 6.1667 8.00001C6.1667 8.27615 6.39056 8.50001 6.6667 8.50001C6.94284 8.50001 7.1667 8.27615 7.1667 8.00001Z" fill="#080D23"/>
</svg>
